<svg width="31" height="10" viewBox="0 0 31 10" fill="none" xmlns="http://www.w3.org/2000/svg">
<path d="M3.648 9.168C2.004 9.168 0.852 8.364 0.384 6.84C0.348 6.744 0.396 6.672 0.492 6.648L1.74 6.348C1.836 6.324 1.896 6.36 1.932 6.456C2.244 7.224 2.748 7.584 3.648 7.584C4.5 7.584 5.076 7.308 5.076 6.648C5.076 6.012 4.536 5.664 3.636 5.34L2.856 5.064C1.452 4.584 0.6 3.756 0.6 2.496C0.6 1.056 1.884 0.0239997 3.552 0.0239997C5.028 0.0239997 6.132 0.707999 6.576 2.172C6.612 2.268 6.564 2.34 6.468 2.364L5.148 2.7C5.052 2.724 4.992 2.688 4.956 2.592C4.668 1.872 4.212 1.608 3.552 1.608C2.784 1.608 2.28 1.932 2.28 2.448C2.28 3 2.736 3.36 3.768 3.708L4.392 3.912C5.988 4.44 6.756 5.196 6.756 6.648C6.756 8.112 5.484 9.168 3.648 9.168ZM11.651 9H10.547C10.463 9 10.391 8.964 10.367 8.88L7.29497 0.372C7.25897 0.263999 7.31897 0.192 7.42697 0.192H8.95097C9.03497 0.192 9.09497 0.228 9.11897 0.323999L11.051 6.264L13.007 0.323999C13.031 0.228 13.091 0.192 13.175 0.192H14.255C14.339 0.192 14.399 0.228 14.423 0.323999L16.379 6.276L18.323 0.323999C18.347 0.228 18.407 0.192 18.491 0.192H19.979C20.087 0.192 20.147 0.263999 20.111 0.372L17.039 8.88C17.015 8.964 16.943 9 16.859 9H15.755C15.671 9 15.611 8.964 15.587 8.868L13.703 3.132L11.819 8.868C11.795 8.964 11.735 9 11.651 9ZM22.7312 9H21.4832C21.3872 9 21.3272 8.94 21.3272 8.844V0.348C21.3272 0.252 21.3872 0.192 21.4832 0.192H22.8632C22.9472 0.192 23.0072 0.228 23.0432 0.3L26.0912 5.364L29.1032 0.3C29.1392 0.228 29.1992 0.192 29.2832 0.192H30.6272C30.7232 0.192 30.7832 0.252 30.7832 0.348V8.844C30.7832 8.94 30.7232 9 30.6272 9H29.3792C29.2832 9 29.2232 8.94 29.2232 8.844V2.892L26.6432 7.212C26.6072 7.284 26.5472 7.32 26.4632 7.32H25.6472C25.5632 7.32 25.5032 7.284 25.4672 7.212L22.8872 2.952V8.844C22.8872 8.94 22.8272 9 22.7312 9Z" fill="black"/>
</svg>
